HIERARCHY
ROOT hip
{
  OFFSET 0 0 0
  CHANNELS 6 Xposition Yposition Zposition Yrotation Xrotation Zrotation
  JOINT chest
  {
    OFFSET 0 0 0
    CHANNELS 6 Xposition Yposition Zposition Yrotation Xrotation Zrotation
    JOINT head
    {
      OFFSET 0 0 0
      CHANNELS 6 Xposition Yposition Zposition Yrotation Xrotation Zrotation
      EndSite
      {
        OFFSET 0 0 0
      }
    }

    JOINT lHand
    {
      OFFSET 0 0 0
      CHANNELS 6 Xposition Yposition Zposition Yrotation Xrotation Zrotation
      EndSite
      {
        OFFSET 0 0 0
      }
    }



    JOINT rHand
    {
      OFFSET 0 0 0
      CHANNELS 6 Xposition Yposition Zposition Yrotation Xrotation Zrotation
      EndSite
      {
        OFFSET 0 0 0
      }
    }



  }


  JOINT lFoot
  {
    OFFSET 0 0 0
    CHANNELS 6 Xposition Yposition Zposition Yrotation Xrotation Zrotation
    EndSite
    {
      OFFSET 0 0 0
    }
  }


  JOINT rFoot
  {
    OFFSET 0 0 0
    CHANNELS 6 Xposition Yposition Zposition Yrotation Xrotation Zrotation
    EndSite
    {
      OFFSET 0 0 0
    }
  }


}

MOTION
Frames: 23
Frame Time: 0.1
0.000000 105.864700 -0.295657 0.000000 0.000000 0.000000 0.000000 127.272800 -3.404905 0.000000 359.861000 0.000000 0.000000 162.202500 -2.025626 0.000000 1.000078 0.000000 22.545940 97.674580 -1.347800 -6.660519 339.465100 -59.464940 -32.719670 91.889160 -1.142937 -332.303500 352.959100 -299.805200 10.875840 6.367671 -2.719793 -345.188400 18.424540 -357.584700 -10.875840 6.367671 -2.719793 -14.811640 18.424540 -2.415332 
0.045157 105.851100 2.544904 -359.906100 359.927200 -359.883800 0.026312 127.488800 -1.395203 -359.964900 359.731800 -0.366765 0.000000 162.160500 0.377247 0.000000 0.945303 0.000000 22.390250 97.325910 1.544006 -6.756869 340.620100 -62.440590 -32.317410 92.269090 0.691187 -332.929200 352.676200 -297.188000 12.303710 6.477881 0.882884 -346.548800 17.197950 -0.056890 -10.953020 6.219347 -2.467037 -13.506900 18.558620 -2.148671 
0.091795 105.845900 5.489377 -359.807900 359.678700 -359.758700 0.054048 127.717100 0.680642 -359.926500 359.594200 -0.758226 -0.000001 162.118500 2.783734 0.000000 0.805333 0.000000 22.223340 96.951840 4.617982 -6.929669 341.853100 -65.615250 -31.863190 92.642290 2.460098 -333.442400 352.449800 -294.397900 13.806280 6.594583 4.712982 -347.910100 15.683050 -2.655787 -10.900080 5.724380 -2.282674 -11.925710 18.363610 -1.807299 
0.139279 105.845500 8.493228 -359.708000 359.330000 -359.629000 0.082598 127.952200 2.794286 -359.885800 359.452000 -1.163863 -0.000001 162.076500 5.192284 0.000000 0.616706 0.000000 22.050010 96.563220 7.796055 -7.183774 343.124800 -68.900920 -31.379270 93.011620 4.191743 -333.894300 352.262900 -291.507800 15.351510 6.714990 8.673034 -349.223000 13.973590 -5.296443 -10.772770 5.031327 -2.137393 -10.197130 17.975010 -1.436274 
0.186974 105.846300 11.511920 -359.608400 358.956400 -359.498900 0.111352 128.189100 4.917378 -359.843600 359.308800 -1.573142 -0.000002 162.034400 7.601351 0.000000 0.415948 0.000000 21.875080 96.170960 11.000150 -7.515735 344.395000 -72.209180 -30.887940 93.380000 5.914073 -334.337300 352.102100 -288.590300 16.907420 6.836326 12.665580 -350.452700 12.171590 -7.903885 -10.626870 4.288754 -2.001882 -8.443677 17.531090 -1.071758 
0.234247 105.844700 14.500930 -359.510700 358.632800 -359.371900 0.139698 128.422500 7.021572 -359.801200 359.168400 -1.975517 -0.000002 161.992400 10.009390 0.000000 0.239559 0.000000 21.703350 95.785960 14.152200 -7.913691 345.624500 -75.451970 -30.411450 93.750290 7.655034 -334.824900 351.957900 -285.716400 18.441980 6.955807 16.593140 -351.580400 10.384980 -10.412900 -10.518150 3.645222 -1.846830 -6.779051 17.171650 -0.738167 
0.280462 105.837100 17.415710 -359.416300 358.434300 -359.251400 0.167028 128.647200 9.078519 -359.759800 359.034400 -2.360425 -0.000003 161.950400 12.414840 0.000000 0.124012 0.000000 21.539640 95.419140 17.174130 -8.358102 346.777200 -78.542350 -29.972070 94.125400 9.442577 -335.411200 351.825100 -282.955100 19.923200 7.070652 20.358260 -352.601700 8.724848 -12.766700 -10.502390 3.249295 -1.642926 -5.308518 17.037220 -0.448954 
0.324985 105.819900 20.211740 -359.326000 358.435500 -359.140600 0.192729 128.858100 11.059870 -359.720500 358.910400 -2.717301 -0.000003 161.908500 14.816160 0.000000 0.105770 0.000000 21.388770 95.081400 19.987860 -8.823180 347.820600 -81.395060 -29.592080 94.508230 11.304650 -336.150800 351.701800 -280.373000 21.319070 7.178082 23.863470 -353.524700 7.302821 -14.914960 -10.635340 3.249535 -1.360859 -4.131496 17.269210 -0.210395 
0.367181 105.789500 22.844480 -359.240700 358.711600 -359.042200 0.216192 129.049800 12.937290 -359.684900 358.800100 -3.035567 -0.000004 161.866600 17.211810 0.000000 0.221318 0.000000 21.255550 94.783630 22.515330 -9.278770 348.727500 -83.927040 -29.293740 94.901650 13.269200 -337.098600 351.588300 -278.034200 22.597580 7.275315 27.011300 -354.366500 6.229475 -16.811960 -10.972790 3.794505 -0.971319 -3.345953 18.011640 -0.027953 
0.406417 105.742400 25.269390 -359.160700 359.338200 -358.959000 0.236806 129.217200 14.682410 -359.654300 358.707000 -3.304646 -0.000004 161.824900 19.600230 0.000000 0.507205 0.000000 21.144780 94.536740 24.678450 -9.692382 349.474800 -86.057590 -29.099330 95.308560 15.364180 -338.310100 351.484800 -276.000300 23.726730 7.359570 29.704300 -355.149700 5.613907 -18.415000 -11.570500 5.032768 -0.444993 -3.054933 19.414270 -359.915400 
0.442058 105.674900 27.441950 -359.086900 0.391923 -358.893600 0.253961 129.355100 16.266890 -359.630200 358.634700 -3.513957 -0.000004 161.783400 21.979880 0.000000 1.000094 0.000000 21.061280 94.351620 26.399160 -10.031230 350.042900 -87.707760 -29.031110 95.731840 17.617540 -339.842200 351.389300 -274.331300 24.674500 7.428064 31.844980 -355.898100 5.564597 -19.683360 -12.484250 7.112886 0.247429 -3.376655 21.636230 -359.908300 
0.440533 105.594900 29.377250 -358.986100 2.170976 -358.668700 0.269481 129.498600 17.661810 -359.613600 358.585500 -3.656443 -0.000005 161.839900 24.425740 0.000000 1.775397 0.000000 20.959810 94.210620 27.489410 -10.212160 350.774900 -88.880920 -29.116220 96.104690 20.187750 -341.988400 351.583000 -272.710700 25.474430 7.481362 33.367780 -356.708700 6.182822 -20.691530 -13.852250 10.395150 1.049874 -4.573328 25.002760 -0.049304 
0.383850 105.510400 31.129880 -358.823800 4.763962 -358.177200 0.285015 129.672700 18.880490 -359.604000 358.557000 -3.739126 -0.000005 162.049000 26.981070 0.000000 2.837444 0.000000 20.810240 94.092630 27.925710 -10.214920 351.887700 -89.660530 -29.346650 96.386990 23.133860 -344.817200 352.255600 -270.934100 26.178330 7.522660 34.337350 -357.642600 7.416889 -21.548610 -15.693440 14.925660 1.900796 -6.759547 29.568420 -0.450923 
0.294741 105.418200 32.714510 -358.600400 7.931133 -357.526500 0.299684 129.856900 19.957960 -359.600100 358.545500 -3.772552 -0.000006 162.345200 29.596750 0.000000 4.116189 0.000000 20.640050 94.003340 27.876790 -10.093630 353.171800 -90.092960 -29.691930 96.621680 26.334710 -348.061000 353.240500 -269.219100 26.781630 7.553128 34.851550 -358.661800 9.148531 -22.264760 -17.884710 20.381680 2.821291 -9.902801 35.065220 -1.328023 
0.195941 105.315200 34.145800 -358.326800 11.429220 -356.825600 0.312610 130.030500 20.929260 -359.600700 358.547300 -3.767274 -0.000006 162.663200 32.223650 0.000000 5.541214 -0.000001 20.476750 93.948500 27.511370 -9.895848 354.421100 -90.228950 -30.121600 96.851690 29.669100 -351.485300 354.341800 -267.749700 27.279770 7.573936 35.008240 -359.721000 11.261160 -22.844880 -20.302920 26.440480 3.832456 -14.045110 41.167060 -2.956350 
0.110181 105.198000 35.438420 -358.032000 15.014640 -356.189000 0.322916 130.173100 21.829430 -359.604600 358.558900 -3.733849 -0.000007 162.937800 34.812630 0.000000 7.041745 -0.000001 20.347820 93.933820 26.998200 -9.667761 355.435600 -90.122040 -30.605180 97.119960 33.015880 -354.897800 355.341200 -266.665600 27.668170 7.586254 34.905280 -0.768484 13.638940 -23.285980 -22.824950 32.779350 4.955390 -19.309230 47.482610 -5.670652 
0.060193 105.063400 36.607050 -357.766300 18.448130 -355.742000 0.329725 130.264000 22.693490 -359.610600 358.576400 -3.682832 -0.000007 163.103700 37.314560 0.000000 8.546784 -0.000001 20.280740 93.964990 26.506020 -9.458283 356.021200 -89.826560 -31.112220 97.469420 36.253860 -358.144300 356.008800 -266.065100 27.942270 7.591250 34.640540 -1.745827 16.166480 -23.575050 -25.327680 39.075530 6.211191 -25.878970 53.570420 -9.841394 
0.068712 104.908300 37.666360 -357.601700 21.498120 -355.623700 0.332159 130.282700 23.556490 -359.617300 358.596500 -3.624780 -0.000008 163.095500 39.680330 0.000000 9.985332 -0.000001 20.303000 94.047750 26.203550 -9.321998 355.984900 -89.395410 -31.612260 97.943020 39.261870 -1.094356 356.107000 -266.018300 28.097490 7.590097 34.311890 -2.588028 18.728910 -23.687740 -27.687960 45.006330 7.620957 -33.900590 58.979310 -15.776760 
0.158470 104.729300 38.631000 -357.624700 23.939870 -355.986100 0.329339 130.208700 24.453450 -359.623700 358.615300 -3.570248 -0.000008 162.847900 41.860790 0.000000 11.286600 -0.000001 20.442100 94.187820 26.259520 -9.321318 355.127100 -88.876570 -32.074830 98.583660 41.918730 -3.620213 355.387600 -266.588600 28.129260 7.583964 34.017170 -3.223306 21.211830 -23.588050 -29.782680 50.248990 9.205784 -43.225860 63.319610 -23.470060 
0.352199 104.523200 39.515660 -357.921600 25.548670 -356.985900 0.320389 130.021400 25.419420 -359.628400 358.629200 -3.529790 -0.000009 162.295600 43.806800 0.000000 12.380180 -0.000001 20.725520 94.390910 26.842680 -9.528769 353.229800 -88.307840 -32.469440 99.434310 44.103260 -5.566895 353.579000 -267.862100 28.033020 7.574019 33.854270 -3.574003 23.500630 -23.229520 -31.488700 54.480790 10.986770 -53.019970 66.371470 -32.214940 
0.672632 104.286900 40.335010 -358.552700 26.087250 -358.768100 0.304431 129.700200 26.489420 -359.630200 358.634700 -3.513959 -0.000009 161.373400 45.469260 0.000000 13.196040 -0.000001 21.180760 94.662730 28.121760 -10.031230 350.042900 -87.707760 -32.765670 100.537900 45.694290 -6.706837 350.368600 -269.994800 27.804200 7.561434 33.921030 -3.559180 25.478650 -22.558620 -32.682910 57.379010 12.985010 -61.603940 68.186870 -40.457450 
1.253787 103.961000 40.995220 -359.593300 25.345870 -1.818040 0.305635 129.224100 27.695800 -359.630200 358.634700 -3.650470 0.015540 159.902400 46.848390 0.000246 13.746360 -0.067072 21.900460 94.970950 30.248800 -10.966240 344.949900 -86.856710 -32.980810 102.012100 46.640310 -6.720921 345.065800 -273.614600 27.381260 7.352464 34.245590 -2.976809 27.091120 -21.283420 -33.365680 58.936430 15.384720 -67.818360 69.096780 -47.097100 
2.146537 103.515900 41.428960 -0.922213 23.387930 -6.221840 0.338340 128.602800 29.020200 -359.630200 358.634700 -3.999130 0.055278 157.851100 47.995270 0.000092 14.110880 -0.238601 22.907570 95.291670 33.133270 -12.489570 337.720200 -85.443670 -33.156090 103.877700 47.038350 -5.121625 337.387700 -279.406400 26.734750 6.838261 34.742060 -1.757457 28.405610 -19.253310 -33.664920 59.483710 18.266330 -71.822360 69.474730 -52.165010 
